<svg width="28" height="25" viewBox="0 0 28 25" fill="none" xmlns="http://www.w3.org/2000/svg">
<path d="M0.336182 19.0328L2.59474 22.9366C2.81931 23.3836 3.16361 23.7594 3.58925 24.0222C4.0149 24.2849 4.50515 24.4243 5.00537 24.4248H19.9981L16.8864 19.0328H0.336182ZM27.0746 19.0587C27.0734 18.5401 26.9238 18.0327 26.6434 17.5965L17.8565 2.32551C17.6274 1.8917 17.2842 1.52866 16.864 1.27554C16.4437 1.02242 15.9624 0.888822 15.4718 0.889161H10.8285L24.3982 24.398L26.5398 20.6948C26.9576 19.9854 27.0754 19.672 27.0754 19.0587H27.0746ZM14.6755 15.2034L8.61338 4.70189L2.54711 15.2034H14.6755Z" fill="white"/>
</svg>
