<svg width="25" height="25" viewBox="0 0 25 25" fill="none" xmlns="http://www.w3.org/2000/svg">
<path d="M12.4762 8.7327C10.3153 8.7327 8.5519 10.4961 8.5519 12.657C8.5519 14.8178 10.3153 16.5812 12.4762 16.5812C14.637 16.5812 16.4004 14.8178 16.4004 12.657C16.4004 10.4961 14.637 8.7327 12.4762 8.7327ZM24.2461 12.657C24.2461 11.0319 24.2608 9.42158 24.1695 7.79947C24.0783 5.91535 23.6484 4.24319 22.2707 2.86542C20.89 1.48471 19.2207 1.05784 17.3366 0.966578C15.7116 0.875316 14.1012 0.890036 12.4791 0.890036C10.8541 0.890036 9.24372 0.875316 7.62161 0.966578C5.73749 1.05784 4.06533 1.48766 2.68756 2.86542C1.30686 4.24613 0.879984 5.91535 0.788722 7.79947C0.69746 9.42452 0.712179 11.0349 0.712179 12.657C0.712179 14.2791 0.69746 15.8924 0.788722 17.5145C0.879984 19.3986 1.3098 21.0708 2.68756 22.4485C4.06827 23.8292 5.73749 24.2561 7.62161 24.3474C9.24667 24.4386 10.857 24.4239 12.4791 24.4239C14.1042 24.4239 15.7145 24.4386 17.3366 24.3474C19.2207 24.2561 20.8929 23.8263 22.2707 22.4485C23.6514 21.0678 24.0783 19.3986 24.1695 17.5145C24.2637 15.8924 24.2461 14.282 24.2461 12.657V12.657ZM12.4762 18.695C9.1348 18.695 6.43815 15.9983 6.43815 12.657C6.43815 9.3156 9.1348 6.61895 12.4762 6.61895C15.8175 6.61895 18.5142 9.3156 18.5142 12.657C18.5142 15.9983 15.8175 18.695 12.4762 18.695ZM18.7615 7.7818C17.9813 7.7818 17.3513 7.1518 17.3513 6.37166C17.3513 5.59151 17.9813 4.96151 18.7615 4.96151C19.5416 4.96151 20.1716 5.59151 20.1716 6.37166C20.1719 6.5569 20.1356 6.74038 20.0648 6.91157C19.994 7.08276 19.8901 7.23831 19.7591 7.3693C19.6281 7.50029 19.4726 7.60415 19.3014 7.67494C19.1302 7.74572 18.9467 7.78204 18.7615 7.7818V7.7818Z" fill="white"/>
</svg>
