<svg width="24" height="25" viewBox="0 0 24 25" fill="none" xmlns="http://www.w3.org/2000/svg">
<path d="M11.8432 24.4248C5.34383 24.4248 0.0753784 19.1563 0.0753784 12.657C0.0753784 6.15761 5.34383 0.88916 11.8432 0.88916C18.3426 0.88916 23.611 6.15761 23.611 12.657C23.6039 19.1528 18.339 24.4177 11.8432 24.4248ZM6.1005 20.359L6.09461 20.3708C7.41555 21.3603 8.96956 21.9922 10.6063 22.2051C12.2429 22.4181 13.9069 22.205 15.4371 21.5864C14.991 19.1873 14.3297 16.8332 13.4613 14.5528C11.4665 15.2482 9.64284 16.3606 8.11162 17.816C7.357 18.5305 6.70371 19.3449 6.16993 20.2366L6.16169 20.2496V20.2378L6.14051 20.279L6.12639 20.3025L6.11815 20.3178L6.09815 20.3602L6.1005 20.359V20.359ZM17.467 13.8867C16.8881 13.8867 16.3091 13.9267 15.7348 14.0044C16.4846 16.0997 17.0747 18.2487 17.5 20.4331C19.4998 18.9915 20.8591 16.8273 21.2892 14.3998C20.0442 14.0563 18.7585 13.8825 17.467 13.8832V13.8867ZM2.21359 12.604V12.6699C2.21574 14.9371 3.01795 17.1308 4.47889 18.8645C6.37149 15.9408 9.17104 13.7188 12.4481 12.5393L12.5881 12.4993C12.3798 12.0392 12.1845 11.6285 11.9891 11.2448C8.84937 12.1252 5.60614 12.5823 2.34539 12.604H2.21359V12.604ZM17.0987 11.8909C18.5589 11.8968 20.0157 12.0298 21.4528 12.2886C21.3779 10.298 20.6816 8.38079 19.4617 6.80602C18.038 8.39812 16.2661 9.6401 14.2838 10.4352L14.318 10.4211L14.2815 10.4364C14.5103 10.9138 14.7253 11.3976 14.9264 11.8874L14.9746 12.005C15.6807 11.9274 16.3891 11.8885 17.0987 11.8909ZM7.57971 4.0394C6.31559 4.66334 5.20398 5.55738 4.32348 6.65831C3.44299 7.75923 2.81511 9.04015 2.48425 10.4105C5.22615 10.3681 7.95628 10.0222 10.6217 9.37728H10.6546L10.6664 9.36199L10.73 9.34669H10.737L10.7841 9.33727H10.8029L10.8276 9.33021L10.8747 9.31844L10.9018 9.30668L10.9277 9.29962H10.9512C9.91765 7.4897 8.79195 5.73399 7.57854 4.0394H7.57971V4.0394ZM11.8432 3.05326C11.199 3.05165 10.5562 3.11274 9.92386 3.23566C11.1567 4.94387 12.2879 6.7231 13.3118 8.56413C15.1454 7.91108 16.7807 6.79845 18.0613 5.33269C16.3228 3.86241 14.12 3.05492 11.8432 3.05326V3.05326Z" fill="white"/>
</svg>
