<svg width="34" height="25" viewBox="0 0 34 25" fill="none" xmlns="http://www.w3.org/2000/svg">
<path d="M26.0545 2.87924C24.3393 2.90942 22.6868 3.52924 21.3749 4.63449C20.063 5.73975 19.1716 7.26302 18.8507 8.94818C17.2401 6.44486 15.9785 3.73353 15.1008 0.88916H11.3838V10.7573C11.3838 11.6908 11.013 12.5861 10.3529 13.2461C9.69285 13.9062 8.79761 14.277 7.86414 14.277C6.93067 14.277 6.03543 13.9062 5.37537 13.2461C4.71531 12.5861 4.34449 11.6908 4.34449 10.7573V0.88916L0.611023 0.971395V10.8396C0.621928 12.7589 1.39482 14.5952 2.75967 15.9446C4.12452 17.2941 5.96953 18.046 7.88881 18.0351C9.8081 18.0242 11.6444 17.2513 12.9939 15.8865C14.3433 14.5216 15.0953 12.6766 15.0844 10.7573V9.11265C15.8735 10.6604 16.7807 12.1451 17.7981 13.5533L15.5284 24.4248H19.3441L20.9888 16.5138C22.5131 17.4934 24.2921 18.0025 26.1038 17.9776C28.0973 17.9776 30.0091 17.1857 31.4186 15.7761C32.8282 14.3665 33.6201 12.4547 33.6201 10.4613C33.6201 8.46786 32.8282 6.55607 31.4186 5.1465C30.0091 3.73692 28.0973 2.94503 26.1038 2.94503L26.0545 2.87924ZM26.0545 14.1125C24.509 14.0626 23.0279 13.4818 21.8605 12.4678L22.2388 10.9712V10.8889C22.502 9.24422 23.3243 6.61271 26.1038 6.61271C26.5912 6.60837 27.0746 6.70034 27.5263 6.88334C27.978 7.06634 28.3891 7.33677 28.736 7.67909C29.0829 8.02141 29.3588 8.42888 29.5478 8.87811C29.7368 9.32734 29.8352 9.80947 29.8373 10.2968C29.8021 11.2836 29.3998 12.2217 28.7092 12.9274C28.0187 13.6332 27.0896 14.0558 26.1038 14.1125H26.0545Z" fill="white"/>
</svg>
