<svg width="31" height="25" viewBox="0 0 31 25" fill="none" xmlns="http://www.w3.org/2000/svg">
<path d="M29.9456 4.83863C29.8221 4.34337 29.5804 3.88543 29.2412 3.50407C28.9019 3.1227 28.4753 2.82928 27.9977 2.64896C23.4035 0.875729 16.0687 0.889163 15.6657 0.889163C15.2627 0.889163 7.92798 0.875729 3.3337 2.64896C2.85619 2.82928 2.42953 3.1227 2.09027 3.50407C1.75102 3.88543 1.5093 4.34337 1.38583 4.83863C1.03656 6.16856 0.620117 8.61347 0.620117 12.657C0.620117 16.7005 1.03656 19.1454 1.38583 20.4753C1.5093 20.9706 1.75102 21.4285 2.09027 21.8099C2.42953 22.1912 2.85619 22.4847 3.3337 22.665C7.73991 24.3711 14.6448 24.4248 15.5717 24.4248H15.7598C16.6867 24.4248 23.5915 24.3711 27.9977 22.665C28.4753 22.4847 28.9019 22.1912 29.2412 21.8099C29.5804 21.4285 29.8221 20.9706 29.9456 20.4753C30.2949 19.1454 30.7113 16.7005 30.7113 12.657C30.7113 8.61347 30.2949 6.16856 29.9456 4.83863V4.83863ZM20.26 13.1003L13.8119 17.399C13.7264 17.462 13.6225 17.495 13.5163 17.4931C13.4274 17.4897 13.3402 17.4668 13.2611 17.4259C13.1752 17.3812 13.1034 17.3137 13.0536 17.2307C13.0038 17.1477 12.978 17.0525 12.979 16.9557V8.35823C12.978 8.26145 13.0038 8.16628 13.0536 8.08329C13.1034 8.0003 13.1752 7.93272 13.2611 7.88806C13.3468 7.84235 13.4432 7.82072 13.5402 7.82545C13.6372 7.83018 13.7311 7.8611 13.8119 7.91492L20.26 12.2137C20.3349 12.2609 20.3967 12.3263 20.4395 12.4038C20.4823 12.4813 20.5047 12.5684 20.5047 12.657C20.5047 12.7455 20.4823 12.8326 20.4395 12.9102C20.3967 12.9877 20.3349 13.0531 20.26 13.1003Z" fill="white"/>
</svg>
